<svg width="44" height="46" viewBox="0 0 44 46" fill="none" xmlns="http://www.w3.org/2000/svg">
<path fill-rule="evenodd" clip-rule="evenodd" d="M13.2246 15.8943V38.2038H11.0625V15.8943H13.2246Z" fill="black"/>
<path fill-rule="evenodd" clip-rule="evenodd" d="M1.08106 9.77905C1.68444 9.77905 2.16212 10.2543 2.16212 10.8545V39.8544C2.16212 40.4546 1.68444 40.9298 1.08106 40.9298C0.477677 40.9298 0 40.4546 0 39.8544V10.8545C0 10.2543 0.477677 9.77905 1.08106 9.77905Z" fill="black"/>
<path fill-rule="evenodd" clip-rule="evenodd" d="M42.6748 9.77905C43.2782 9.77905 43.7559 10.2543 43.7559 10.8545V39.8544C43.7559 40.4546 43.2782 40.9298 42.6748 40.9298C42.0714 40.9298 41.5938 40.4546 41.5938 39.8544V10.8545C41.5938 10.2543 42.0714 9.77905 42.6748 9.77905Z" fill="black"/>
<path fill-rule="evenodd" clip-rule="evenodd" d="M19.7109 25.8611V38.2164H17.5488V25.8611H19.7109Z" fill="black"/>
<path fill-rule="evenodd" clip-rule="evenodd" d="M26.1934 20.1711V38.2163H24.0312V20.1711H26.1934Z" fill="black"/>
<path fill-rule="evenodd" clip-rule="evenodd" d="M32.6797 25.8611V38.2164H30.5176V25.8611H32.6797Z" fill="black"/>
<path fill-rule="evenodd" clip-rule="evenodd" d="M29.4778 6.65263H34.3049C35.4991 6.65263 36.467 7.61554 36.467 8.80354V41.1173C36.467 42.3053 35.4991 43.2682 34.3049 43.2682H9.45314C8.25894 43.2682 7.29102 42.3053 7.29102 41.1173V8.80354C7.29102 7.61554 8.25894 6.65263 9.45314 6.65263H14.2802V4.50171H9.45314C7.06475 4.50171 5.12891 6.42753 5.12891 8.80354V41.1173C5.12891 43.4933 7.06475 45.4192 9.45314 45.4192H34.3175C36.7058 45.4192 38.6417 43.4933 38.6417 41.1173V8.80354C38.6417 6.42753 36.7058 4.50171 34.3175 4.50171H29.4904V6.65263H29.4778Z" fill="black"/>
<path fill-rule="evenodd" clip-rule="evenodd" d="M13.1875 2.15092C13.1875 0.962911 14.1554 0 15.3496 0H28.3977C29.5919 0 30.5598 0.962911 30.5598 2.15092V7.12804C30.5598 8.31605 29.5919 9.27896 28.3977 9.27896H15.3496C14.1554 9.27896 13.1875 8.31605 13.1875 7.12804V2.15092ZM28.3977 2.15092H15.3496V7.12804H28.3977V2.15092Z" fill="black"/>
</svg>
