<?xml version="1.0" encoding="UTF-8"?>
<svg id="Layer_2" data-name="Layer 2" xmlns="http://www.w3.org/2000/svg" viewBox="0 0 720.11 706.82">
  <g id="Layer_1-2" data-name="Layer 1">
    <g>
      <path d="M430.4,95.52c24.4,5.83,46.74,17.13,69.12,27.99l68.76-44.18c7.62-3.54,14.19-3.29,20.93,1.88,17.22,13.2,33.25,36.38,50.5,50.5,5.09,6.35,5.76,14.81,2.02,22.07l-45.22,68.45c12.89,21.54,21.21,45.12,28.7,68.99l79,17c7.75,2.08,14.11,8.94,14.98,17.02,1.23,11.4,1.54,64.67-1.06,73.94-1.69,6-5.81,11.05-11.65,13.35l-81.8,17.2c-7.34,23.14-15.5,46.12-28.06,67l.07,3.95,43.25,65.8c3.09,7.31,3.63,14.74-.92,21.59-3.16,4.75-31.56,33.36-36.32,36.68-.85.59-.99,1.39-2.5.98-5.17-31.74-21.62-55.47-49.8-70.71-31.39-16.97-67.93-31.78-100.54-47.46-4.09-1.97-11.66-2.01-7.75-7.4,75.79-44.56,103.65-141.54,60.6-219.44-56.63-102.46-200.82-113.27-271.94-19.89-57.21,75.11-38.81,179.76,37.69,233.14,2.08,1.45,10.24,5.42,10.55,5.94.41.67.42,4.27.04,4.73-.19.23-2.55.43-3.55.9-31.48,14.74-63.62,28.82-94.69,44.35-26.59,13.29-45.65,26.63-55.68,56.32-1.85,5.48-2.51,13.48-4.75,18.28-.47,1.02.21,1.57-1.71,1.24l-36.04-35.93c-4.02-5.19-7.68-11.46-6.23-18.32,12.82-26.21,32.31-48.88,46.77-74.29-4.29-10.45-10.11-20.03-14.48-30.47-5.17-12.35-9.03-25.18-13.07-37.93l-2.2-1.8-79.24-16.76c-7.38-2.94-12.2-8.94-13.01-16.99-1.67-16.73-1.5-51.13-.05-68.02.64-7.43,3.24-12.34,9.08-16.92,27.89-8.39,57.32-12.12,85.75-18.74,6.8-24.01,16.04-47.26,28.76-68.76l-44.73-69.38c-4.64-10.27-1.14-17.49,5.53-25.32,13.13-15.42,32.13-29.3,45.64-44.86,10.87-8.63,17.79-6.27,28.88.15l61.86,41.21c2.83.43,25.27-12.17,30.29-14.33,12.71-5.47,26.14-9.3,39.31-13.44,7.24-26.81,11.6-54.87,18.2-82.05,2.25-6.12,7.91-10.18,14.04-11.96,23.34,1.61,49.99-2.37,72.93-.05,8.17.83,14.3,6.36,17.05,13.95l16.69,80.81Z"/>
      <path d="M269.18,531.23c6.93-3.65,14.88-10.67,22.99-7.5l6.9-36.56c-5.33-8.64-11-17.02-13.94-26.9-1.54-5.16-1.91-14.86-3.47-18.53-.48-1.14-8.33-8.9-10.3-11.7-8.71-12.39-16.55-37.92-2.7-49.33,5.29-4.35,8.44-.53,5.52-10.98l80.99,4.98c-17.85,6.78-36.91,8.96-55.99,8.01v30.5c0,.63-3.26,3.29-4.55,3.51-10.18,1.76-11.22-19.02-15.97-25-1.96-.46-1.39.75-1.99,1.94-4.58,8.99,1.21,22.65,7.09,29.97,2.16,2.69,10.42,8.98,10.91,10.09,2.18,4.93,2.08,17.47,4.76,25.24,5.44,15.73,25.77,36.69,41.22,42.78,10.05,3.96,33.3,3.09,43.05-2,15.67-8.18,32.84-25.69,38.19-42.81,2.17-6.93,2.06-17.97,4.04-22.96,1.3-3.28,6-5.23,8.29-7.71,7.33-7.96,13.27-19.66,10.73-30.83-.31-1.35-2.2-4.88-3.77-3.71-2.77,2.06-3.25,31.5-15.58,24.06-4.89-2.95-3.12-17.71-5.38-24.62-3.08-9.41-9.43-13.15-17.05-18.44l42.99-3.01c-2.89,9.59-.57,6.58,4.34,10.16,16.33,11.89,7.18,40.15-3.36,53.31-1.81,2.26-7.69,6.78-8.47,8.53-1.01,2.28-1.11,9.38-2,13-3.01,12.17-8.35,22.32-15.52,32.5l7.01,36.48c7.87-3.01,16.67,3.24,22.99,7.5v95.5h38v-78c1.11-.19,2,.14,3.04.46,11.47,3.59,40.43,18.08,51.63,24.37,39.94,22.4,37.57,67.67,49.36,106.72.33,7.39-3.53,11.62-10.02,13.97-19.55,2.09-40.6,10.15-59.79,12.2-4.83.52-10.47.58-13.71-3.73-.44-.59-2.52-5.18-2.52-5.48v-58.5H213.18v59.5c0,1.03-3.69,6.09-5.08,6.92-2.47,1.48-5.61,1.75-8.43,1.64-18.79-.74-43.01-11.39-62.55-12.5-6.93-2.07-10-7.96-9.88-14.92,6.5-21.22,9.27-44.93,16.22-65.86,13.72-41.34,53.03-46.37,86.68-65.36.62-.87,2.04.95,2.04,1.07v77.5h37v-95.5ZM409.17,498.74c-17.29,15.97-32.8,21.61-56.54,20.05-17.91-1.18-27.94-9.46-41.44-20.05l-6.91,36.33c30.48,24.56,81.42,24.98,111.76-.03l-6.88-36.29Z"/>
      <path d="M390.19,290.73l11.03-42.96c3.21-2.85,24.01,11.16,27.43,13.99,18.61,15.42,27.71,36.82,30.52,60.48.49,4.11-1.69,10.74,3.06,12.94,4.52,2.09,6.48-.19,10.16,5.84s2.82,12.06,2.8,18.71l-67.46,5.04c-37.79.46-75.24.51-113.03-1.05l-49.52-3.98c-.5-6.55-.23-18.46,6.05-22.46,2.54-1.62,8.81-1.31,9.79-4.21.87-2.56-.14-7.66.17-10.83,1.9-18.92,8.93-37.24,21.48-51.52,9.08-10.33,22.82-20.44,36.47-22.95l7.53,31.98,3.51,10.98-4.03-42.45c.69-4.16-1.72-11.37,2.09-13.99,1.54-1.06,10.42-3.74,12.75-4.25,14.85-3.23,33.43-2.53,47.76,2.64,2.91,1.05,6.44,2.86,6.5,6.51-2.16,17.1-3.83,34.41-5.05,51.55Z"/>
      <rect x="238.18" y="649.73" width="25" height="12"/>
      <path d="M482.18,649.73v12h-23.5c-2.22,0-2.22-12,0-12h23.5Z"/>
    </g>
  </g>
</svg>