<?xml version="1.0" encoding="UTF-8"?>
<svg id="Layer_2" data-name="Layer 2" xmlns="http://www.w3.org/2000/svg" viewBox="0 0 214.43 225.03">
  <defs>
    <style>
      .cls-1 {
        fill: #fff;
      }

      .cls-2 {
        fill: #e3e4e5;
      }
    </style>
  </defs>
  <g id="Layer_1-2" data-name="Layer 1">
    <g>
      <path d="M209.81,219.55c-.79-.34-1.86-.06-2.8-.06-20.69,0-10.22.01-30.91,0-1.63,0-3.26-.14-4.32-.19.44-4.1,1.13-7.75,1.17-11.41.12-14.28.02-28.57.03-42.86,0-9.91-5.37-15.26-15.43-15.3-4.49-.02-8.98,0-13.47,0v-9.2c-1.96.06-3.92.16-5.89.29v8.76h-19.88v-10.04c-.53.04-4.5.29-5.97.37v9.88c-5.06,0-9.75-.11-14.44.02-9.27.27-14.33,5.5-14.37,14.81-.06,14.29-.12,28.57,0,42.86.03,3.83.7,7.65,1.13,12.02-1.32,0-2.88,0-4.44,0-21.47,0-14.12-.06-35.59.13-1.65.01-3.28,1.74-4.92,2.67,1.68.91,3.36,2.6,5.05,2.61,38.69.14,48.55.1,87.23.09,29.63,0,71.23.17,77.96-.13,1.53-.07,2.98-1.74,4.47-2.68-1.53-.89-3-1.93-4.61-2.62Z"/>
      <path d="M35.19,192.74c10.4,0,20.8.13,31.19-.12,1.75-.04,3.44-1.71,5.16-2.63-1.72-.91-3.43-2.61-5.16-2.62-20.19-.19-40.39-.21-60.59-.02-1.92.02-3.82,1.71-5.72,2.62,1.91.93,3.78,2.6,5.73,2.65,9.79.27,19.59.13,29.39.12Z"/>
      <path d="M35.73,203.98c-10.2,0-20.41-.1-30.6.1-1.71.03-3.38,1.34-5.07,2.05,1.66.94,3.3,2.68,4.98,2.7,20.6.2,41.21.19,61.81.04,1.61-.01,3.2-1.54,4.8-2.37-1.57-.84-3.11-2.37-4.71-2.4-10.39-.22-20.8-.11-31.2-.12Z"/>
      <path d="M36.18,151.27v-.02c-10.22,0-20.45-.12-30.66.11-1.87.04-3.68,1.49-5.52,2.3,1.78.84,3.55,2.4,5.34,2.41,20.24.18,40.49.18,60.73.02,1.84-.01,3.65-1.49,5.48-2.29-1.77-.84-3.5-2.37-5.3-2.42-10.01-.24-20.04-.11-30.06-.11Z"/>
      <path d="M17.32,169.23c4.2,0,8.44.24,12.59-.11,1.76-.15,3.34-1.53,5.01-2.36-1.5-.99-2.95-2.77-4.5-2.82-8.79-.28-17.61-.27-26.4-.04-1.35.04-2.63,1.74-3.95,2.67,1.35.89,2.61,2.42,4.06,2.54,4.36.34,8.79.12,13.19.12Z"/>
      <path class="cls-1" d="M101.23,219.94h-.04c-11.08-.53-11.75-7.64-11.77-7.95v-.09s-.48-48.93-.48-48.93c-.14-2.08.45-3.8,1.74-5.12,2.61-2.65,7.23-2.54,7.76-2.51,1.46,0,46.7-.01,55.95-.47,8.48-.42,11.81,5.86,12.37,9.25l.02.23v43.85l-.02.1c-1.57,10.5-9.04,11.15-9.35,11.17h-.09s-56.1.48-56.1.48ZM92.2,211.81c.06.43.86,4.93,9.09,5.34l55.96-.47c.47-.05,5.53-.81,6.75-8.7v-43.51c-.19-.9-1.78-7.19-9.46-6.82-9.43.47-54.22.48-56.13.48h-.08c-1.06-.05-4.16.14-5.67,1.69-.72.74-1.03,1.72-.94,3v.09s.48,48.91.48,48.91Z"/>
      <path d="M163.74,76.71c2.09.18,6.34-.85,6.25-.96,10.09-2.76,19.92-7.74,27.19-15.38,6.99-7.35,10.39-17.07,9.07-27.19-.46-4.14-2.83-8.25-5.07-11.7-4.14-6.39-9.87-11.04-16.65-14.29-18-8.62-36.48-9.44-55.24-2.74-8.39,2.99-15.64,7.8-21.32,14.8-8.81,10.88-9.49,24.62-1.71,36.27,4.39,6.57,10.45,11.21,17.45,14.67,2.48,1.22,5.07,2.21,7.75,3.38-1.05,3.99-2.05,8.02-3.95,11.75-.44.86-1.18,1.59-1.91,2.26-.93.85-1.37,1.81-1.12,3.03.24,1.15.98,1.92,2.14,2.14.7.13,1.45.18,2.15.08,6.35-.92,12.38-2.86,18.09-5.78,4.65-2.38,8.84-5.35,11.63-9.94l.66-.41c1.56-.21,3.07-.09,4.57.04ZM157.47,71.12c-1.61.09-2.68.7-3.38,2.23-1.47,3.23-4.16,5.33-7.08,7.14-4.07,2.53-8.51,4.22-13.09,5.55l-.21.02c1.25-4.46,2.53-8.91,3.73-13.37.59-2.17-.12-3.37-2.27-4.01-6.55-1.98-12.64-4.86-17.9-9.3-4.96-4.18-8.7-9.2-10.16-15.66-1.77-7.85.33-14.8,5.21-20.99,4.48-5.69,10.36-9.53,16.96-12.29,8.56-3.59,17.53-4.98,26.78-4.64,8.76.32,17.18,2.1,25.09,5.94,5.92,2.88,11.16,6.66,14.92,12.18,5.61,8.22,5.72,16.81,1.23,25.5-3.75,7.25-9.81,12.14-16.95,15.77-7.18,3.65-14.86,5.49-22.87,5.94Z"/>
      <path d="M152.75,35.77c-10.86,0-21.73,0-32.59,0-1.96,0-3.21-1.22-3.11-2.99.08-1.3.97-2.32,2.26-2.55.43-.07.88-.08,1.32-.08,21.48,0,42.95,0,64.43,0,.44,0,.89,0,1.32.07,1.38.24,2.32,1.43,2.28,2.83-.04,1.39-1.07,2.52-2.46,2.68-.34.04-.69.02-1.04.02-10.8,0-21.6,0-32.4,0Z"/>
      <path d="M153.51,43.53c9.73,0,19.47,0,29.2,0,.31,0,.63-.01.94.01,1.53.13,2.65,1.32,2.66,2.8.01,1.45-1.04,2.62-2.55,2.8l-.94.03c-19.53,0-39.06,0-58.59,0h-.66c-1.64-.1-2.84-1.32-2.82-2.86.03-1.55,1.24-2.76,2.89-2.77,3.34-.03,6.68-.01,10.02-.01,6.62,0,13.23,0,19.84,0Z"/>
    </g>
    <path d="M76.02,143.81v-50.89s32.95,8.17,50.84,8.48l48.02-5.65,5.65-1.01v51.9l-22.6-5.65h-59.31l-19.77,5.65h-2.82v-2.83Z"/>
    <polygon class="cls-2" points="92.97 103.87 109.92 109.52 109.92 132.14 87.32 132.14 92.97 103.87"/>
    <polygon class="cls-2" points="143.81 132.14 143.81 109.52 160.76 106.69 166.41 129.31 143.81 132.14"/>
    <path d="M92.97,119.42c0,3.9,3.16,7.07,7.06,7.07s7.06-3.16,7.06-7.07-3.16-7.07-7.06-7.07-7.06,3.16-7.06,7.07Z"/>
    <path d="M146.64,119.42c0,3.9,3.16,7.07,7.06,7.07s7.06-3.16,7.06-7.07-3.16-7.07-7.06-7.07-7.06,3.16-7.06,7.07Z"/>
  </g>
</svg>