<?xml version="1.0" encoding="UTF-8"?>
<svg id="Layer_2" data-name="Layer 2" xmlns="http://www.w3.org/2000/svg" viewBox="0 0 214 235">
  <g id="Layer_1-2" data-name="Layer 1">
    <g>
      <path d="M108,0c7.21,5.46,15.88,10.48,23.97,14.53,24.98,12.5,53.85,22.21,82.03,19.47v42l-4.32,31.18c-8.79,47.65-32.29,89.26-74.38,114.62-8.44,5.08-17.6,8.69-26.31,13.19h-4C46.65,213.03,14.61,163.11,4.29,103.21L0,69v-36c38.22,1.51,76.19-8.85,106-33h2ZM201,44c-13.57,1.59-27.61-.9-40.76-4.73-19.09-5.56-36.5-15.2-53.57-25.1-26.99,20.44-59.65,30.66-93.67,28.83-2.77,65.44,12.95,137.47,75.33,170.18,3.55,1.86,15.91,8.01,19.11,7.8,5.49-.37,26.88-13,32.28-16.75,52.04-36.12,64.27-100.29,61.27-160.22Z"/>
      <path d="M181.01,60.99c3.04,53.46-12.9,111.97-66.33,134.18-8.41,3.5-7.73,3.21-16.03-.32C45.68,172.38,29.86,114.2,32.99,60.99c27.12,1.64,51.54-10.94,74.35-23.8,22.21,13.46,46.93,25.22,73.66,23.8ZM147,81h-15.5c-5.13,0-31.02,34.93-35,40.98-.82,0-9.48-8.94-13.21-9.77-2.5-.56-15.31-.98-16.28,1.3-.16,3.39,5.04,5.15,7.52,7.46,4.09,3.83,8.61,8.59,11.88,13.12,4.38,6.04,6.96,13.34,11.58,18.91,12.59-26.21,29.46-50.54,49.01-72Z"/>
    </g>
  </g>
</svg>