<?xml version="1.0" encoding="UTF-8"?>
<svg id="Layer_2" data-name="Layer 2" xmlns="http://www.w3.org/2000/svg" viewBox="0 0 800.7 909.8">
  <g id="Layer_1-2" data-name="Layer 1">
    <g>
      <path d="M359.27,446.34c.58,2.3-.44,1.64-1.26,2.27-35.14,27.41-78.31,49.78-113.66,77.29-19.63,15.28-34.18,36.92-23.58,62.42,14.39,34.6,49.59,27.02,76.74,13.75,3.38-1.65,7.43-5.12,11.08-6.92,34.69-17.19,69.51-34.12,103.65-52.41l2.38-.33c42.97,45.66,86.9,90.51,130.17,135.9,23.02,24.15,47.73,48.5,70,73,7.68,8.46,12.25,10.53,7.51,22.54s-15.62,17.66-28.42,16.36-27.53-18-36.63-27.36c-20.03-20.59-38.47-42.92-58.03-63.97-7.08-5.72-19.58,3.67-14.82,11.82l65.31,69.68c11.59,17.15,9.77,37.11-8.51,48.37-15.74,9.71-29.2-.73-40.45-11.39-23.16-21.94-42.8-48.08-65.44-70.58-7.27-5.74-18.39,1.18-14.5,10.5l57.46,63.54c18.37,22.71,1.42,62.21-29.87,50.37-.78-1.25,2.6-11.47,2.85-14.38,2.23-26.04-17.47-47.7-42.95-50.52,2.54-10.23,4.83-18.4,2.52-29.02-6.59-30.33-41.6-45.25-68.55-29.94-2.43-28.31-30.67-47.82-58.22-40.71-17.71,4.58-31,24.73-45.28,34.72-.85.6-1,1.39-2.51.98-4.65-37.69-47.51-54.4-76.69-30.12l-1.29-.3-61.68-62.04,76.67-189.52c1.15-.21,1.93.04,2.96.52,5.09,2.35,12.48,9.86,18.98,13.02,36.78,17.87,75.06-12.1,107.68-26.4,17.79-7.8,38.41-8.89,56.35-1.13Z"/>
      <path d="M650.69,726.75c-5.5,4.6-10.95,9.54-17.11,13.39-2.26,1.42-5.64,4.4-7.85,2.26l-183.43-193.59c-6.5-5.65-19.23-22.07-28.47-21.44-1.46.1-8.28,2.97-10.24,3.79-35.81,14.89-72.31,37.54-107.94,54.06-18.35,8.51-52.36,24.95-62.57-3.19-11.68-32.21,39.66-60.26,61.66-74.71,26.64-17.5,56.1-36.73,83.86-52.14,41.06-22.81,70.41-34.98,116.35-15.01,30.24,13.14,49.1,41.74,85.81,38.17,10.1-.98,16.64-5.94,24.91-10.92.53.12,5.25,7.73,5.99,9.04,33.33,58.82,63.28,119.7,96.43,178.65.7,4.15-3.59,9.23-5.8,12.77-13.31,21.29-32.42,42.86-51.61,58.89Z"/>
      <path d="M712.26,391.33c-8.66-6.62-16.17-12.89-27.05-15.65,10.22-55.25,5.2-114.41-16.46-166.33C602.81,51.22,416.09-16.54,263.6,64.16c-103.49,54.77-163.61,168.61-152.32,285.66.89,9.25,3.96,18.15,3.98,27.51-6.9-1.28-13.21-2.89-20.41-1.92-3.03.41-9.43,4.62-10.44,1.26-7.09-49.43-6.04-100.16,8.58-148.11C169.15-21.05,493.3-82.06,654.23,124.87c57.84,74.37,80.03,174.3,58.03,266.46Z"/>
      <path d="M674.05,399.56c8.82-.95,16.21,3.27,20.86,10.63l105.15,192.85c2.46,17.62-2.03,22.37-15.94,30.64-8.75,5.2-35.63,20.91-44.34,20.73-7.04-.14-14.36-3.95-18.34-9.74l-104.88-194.12c-3.64-12.06-.26-20.76,10.03-27.41,7.05-4.56,40.99-22.87,47.48-23.57Z"/>
      <path d="M96.99,399.56c5.19-1.08,8.17.4,12.8,1.76,14.82,4.36,30.03,13.13,44.82,18.18,7.26,5.25,10.79,14.42,9.59,23.28-21.25,53.36-42.54,106.83-63.97,160.03-4.78,11.88-13.47,41.18-20.46,49.54-5.04,6.04-11.99,8.89-19.93,7.9-5.96-.74-46.09-16.44-51.09-19.91-8.15-5.66-9.57-15.18-8.41-24.42l80.71-204.29c2.94-5.49,9.83-10.8,15.92-12.07Z"/>
      <path d="M416.27,188.33l97.78,1.21c11.45,36.38,15.31,74.76,17.22,112.8-5.81.23-11.73-.31-17.55-.05-22.66,1.01-45.26.13-67.91,0-9.93-.06-19.65,1.19-29.55,1.05v-115Z"/>
      <path d="M384.27,188.33v115c-9.9.14-19.62-1.11-29.55-1.05-15.88.09-32.05.99-47.91,1.09-12.61.08-24.93-1.55-37.55-1.04,2.09-38.06,5.75-76.38,17.21-112.8l97.79-1.2Z"/>
      <path d="M553.26,302.33c-.85-19.51-1.62-39-4.12-58.38-2.41-18.64-7.05-37.07-9.88-55.63l88.02.49c20.16,34.36,31.93,73.68,34.56,113.54l-108.58-.03Z"/>
      <path d="M261.27,188.33c-3.08,18.85-7.49,37.65-9.88,56.63-2.4,19.11-3.13,38.2-4.12,57.38l-108.58.02c2.59-39.91,14.76-79.01,34.56-113.54l88.02-.49Z"/>
      <path d="M247.27,334.33c.22,5.46-.3,11.02.01,16.49.96,16.68,2.71,34.44,5,51,.9,6.52,7.96,36.73,6.86,39.88-.3.87-11.81,6.32-13.43,6.57-8.6,1.35-21.45-1.12-30.99-.99-5.68.08-11.24,2.63-17.03.13-.85-.37-8.68-6.56-8.93-7.07-1.16-2.38-.15-6.31-.75-9.25-4.65-23.12-18.57-33.76-40.25-40.75-4.95-17.56-7.77-35.58-9.3-53.75-.38-.8.95-2.26,1.31-2.26h107.5Z"/>
      <path d="M384.27,334.33v91c0,.44-7.34,2.93-8.25,2.82-3.12-.37-6.53-3.77-9.21-4.86-22.94-9.37-47.6-8.35-70.52.56-2.38.92-14,7.53-15.01,6.49-3.18-17.42-6.98-34.9-8.99-52.52-1.14-9.98-2.7-23.12-3.06-32.94-.07-1.96-.53-10.54,1.54-10.54h113.5Z"/>
      <path d="M660.77,334.33c.7.21,1.58,1.54,1.41,2.44-1.66,14.78-2.31,30.23-7.87,44.09l-40.95,22.05c-14.88,10.2-24.34,25.88-22.08,44.42-10.96-2.13-29.17,3.61-39.06.55-1.78-.55-10.77-7.28-10.95-9.07,7.49-34.2,11.62-69.44,12-104.49h107.5Z"/>
      <path d="M529.77,334.33c1.3.4,1.41,2.28,1.55,3.45.75,6.38-.74,17.87-1.37,24.75-1.91,21.07-5.73,42.11-9.69,62.81-32.35-16.27-68.32-27.07-103.99-14v-77h113.5Z"/>
      <path d="M351.92,840.98c-9.51,8.33-31.57,29.82-42.6,31.9-25.76,4.86-46.37-25.5-30.89-47.88,2.11-3.05,6.5-7.01,9.31-9.69,20.76-19.76,43.53-38.24,65.52-56.48,29.34-12.92,56.68,22.2,37.03,47.03-7.68,9.7-28.27,26.27-38.38,35.12Z"/>
      <path d="M316.64,774.71c-15.56,16.3-35.15,30.33-51.42,46.08-23.97,14.07-52.92-7.04-47.31-34.31,2.57-12.48,18.49-22.49,27.37-30.63s31.11-31.11,40.97-34.03c23.4-6.94,44.25,11.78,40.76,35.76-1.24,8.54-4.96,11.49-10.37,17.14Z"/>
      <path d="M416.27,58.33c17.71,3.52,34.48,15.88,46.51,28.99,17.49,19.05,32.14,45.57,40.49,70.01h-87V58.33Z"/>
      <path d="M384.27,58.33v99h-87c1.26-4.83,3.42-10.47,5.52-14.98,16.12-34.69,41.98-74.64,81.48-84.02Z"/>
      <path d="M363.92,850.98c7.97-8.61,21.35-24.98,32.33-28.17,25.66-7.46,48.73,18.75,36.89,42.9-3.2,6.52-29.86,34.1-36.38,38.62-18.34,12.73-45.71,2.16-48.39-20.61-2-16.91,5.43-21.82,15.54-32.74Z"/>
      <path d="M196.27,157.33l10.49-14.01c20.38-21.21,43.52-40.43,69.5-54.5,6.88-3.73,25.64-13.29,32.51-14.49.58-.1,1.65-.26,1.5.51-18.93,24.55-29.07,54.02-40.49,82.5h-73.5Z"/>
      <path d="M604.27,157.33h-73.5c-8.83-21.86-16.66-44.14-28.33-64.67-3.04-5.36-7.68-10.67-10.38-15.62-.45-.82-1.66-2.17-.28-2.72,38.53,14.51,75.55,39.29,103,70,3.32,3.72,7.73,8.45,9.49,13.01Z"/>
      <path d="M187.04,715.58c22.81-2.72,41.02,21.93,32.08,43.09-1.65,3.9-12.51,18.25-15.83,21.17-20.47,17.95-52.67,1.51-50.99-24.99.96-15.18,19.04-37.39,34.75-39.27Z"/>
    </g>
  </g>
</svg>