<?xml version="1.0" encoding="UTF-8"?>
<svg id="Layer_2" data-name="Layer 2" xmlns="http://www.w3.org/2000/svg" viewBox="0 0 175.48 146.18">
  <defs>
    <style>
      .cls-1 {
        fill: #fff;
      }
    </style>
  </defs>
  <g id="Layer_1-2" data-name="Layer 1">
    <g>
      <path d="M110.32,14.17c-1.08-.18-2.18-1.44-2.33-2.52-.24-1.72-.23-7.28-.02-9.03.15-1.2,1.29-2.39,2.51-2.5,5.2.3,10.83-.39,15.98,0,1.45.11,2.41.76,2.81,2.2.38,1.34.33,7.28.17,8.86-.26,2.6-2.37,3.24-4.68,2.99v5.17c6.04.32,12.02,1.78,17.66,3.88l7.19-9.05,15.33,38.57-41.15-5.81,6.45-8.15c-4.36-1.55-9.31-2.31-13.96-2.35-29.39-.22-52.67,25.23-50.42,54.47,2.74,35.59,38.83,57.88,72.22,45.75,20.46-7.43,34.03-25.7,36.55-47.21.13-1.08,0-2.8.17-3.7.06-.29.18-.4.39-.57.29.19.23.43.25.72.12,1.55-.04,3.89-.17,5.49-3.19,39.94-43.97,65.07-81.37,50.71-28.15-10.81-44.03-39.82-38.96-69.54,4.83-28.29,28.9-50.42,57.45-53.09l.27-.22v-5.08c-.72-.08-1.65.11-2.34,0ZM123.31,6.1h-9.36v2.1h9.36v-2.1ZM118.79,19.01v-4.84h-.16v4.84h.16Z"/>
      <path d="M29.34,140.88l54.35-.04c2.52.3,2.69,4.25-.48,4.53H29.95c-2.61-.3-2.99-3.61-.61-4.49Z"/>
      <path d="M6.04,98.51c-.82-.83-.86-2.13-.19-3.07.56-.78,1.59-.86,2.47-.91,11.98-.68,24.59.51,36.64,0,2.84.23,3.2,3.84.49,4.52l-38.66-.08c-.22-.15-.57-.28-.75-.46Z"/>
      <path d="M14.5,62.13l30.62-.04c2.82.3,2.91,4.02.16,4.52l-31.16-.16c-2.04-.93-1.75-3.67.37-4.33Z"/>
      <path d="M117.62,80.86c6.74-.64,7.03,9.3.3,9.14-7.21-1.72-15.1-2.28-22.24-4.07-.5-.13-1.31-.15-.77-.83l.37-.11,22.34-4.12Z"/>
      <path d="M1.75,52.29l26.27-.04c2.72.44,2.63,4.22-.16,4.52H2.2c-2.65-.28-3.03-3.77-.45-4.48Z"/>
      <path d="M31.6,124.75l25.94-.04c2.7.31,2.9,4.06.16,4.52h-25.99c-2.48-.43-2.57-3.86-.12-4.48Z"/>
      <path d="M21.44,114.26l25.46-.04c2.37.47,2.75,3.21.65,4.37l-25.83.15c-2.58-.13-2.79-4.02-.28-4.48Z"/>
      <path d="M19.83,35.51l24.17-.04c2.86.31,2.86,4.21,0,4.52h-23.88c-2.81-.3-2.7-4.07-.28-4.48Z"/>
      <path d="M43.22,46.32l17.22-.03c2.51,1.01,2.14,4.15-.65,4.49-4.96.6-11.03-.4-16.11,0-2.48-.34-2.84-3.69-.46-4.47Z"/>
      <path d="M15.95,75.69l16.41-.02c2.51.45,2.61,3.84.17,4.49H15.93c-2.57-.53-2.5-3.92.02-4.47Z"/>
      <path d="M8.2,126.68l16.41-.02c2.51.58,2.37,4.03-.16,4.49h-15.95c-2.44-.46-2.67-3.69-.3-4.47Z"/>
      <path d="M13.37,133.62c3.25-.55,7.83.3,11.22,0,2.48.45,2.39,4.13.02,4.47-3.42.49-7.9-.32-11.43,0-2.4-.6-2.21-4.06.19-4.47Z"/>
      <path d="M4.17,114.26c1.09-.18,6.45-.18,7.44.07,2.2.57,2.05,4.06-.39,4.39-1.06.14-6.43.17-7.33-.06-2.09-.55-2.02-4.02.29-4.4Z"/>
      <rect class="cls-1" x="113.95" y="6.1" width="9.36" height="2.1"/>
      <rect class="cls-1" x="118.63" y="14.17" width=".16" height="4.84"/>
    </g>
  </g>
</svg>