<?xml version="1.0" encoding="UTF-8"?>
<svg id="Layer_2" data-name="Layer 2" xmlns="http://www.w3.org/2000/svg" viewBox="0 0 383.25 360.8">
  <g id="Layer_1-2" data-name="Layer 1">
    <g>
      <path d="M383.25,228.3l-49.04,3.73c-2.14,6.47-4.23,12.99-6.97,19.23-2.89,6.56-7.01,12.8-9.78,19.18l29.81,35.98-45.98,46.13-40.71-34.95c-.49-1.89,7.87-9.83,9.28-12.19l30.7,26.05,26.38-26.43-28.29-34.44c11.27-15.85,19.64-33.65,23.59-52.79l46.06-4.47v-37.43l-44.88-3.78c-2.87-19.6-10.41-38.21-20.75-54.98l28.97-35.18-25.95-26.52-35.07,29.15c-15.91-10.76-33.39-19.21-52.33-23.14l-4.94-45.74h-37.43l-3.75,44.91c-19.41,2.4-37.66,10.24-54.28,20.23l-34.76-28.91-26.8,26.27,28.15,33.8c-10.33,16.71-20.5,34.25-23.13,54.13l-45.63,3.78v37.43l44.57,4.46c3.05,19.42,10.54,37.55,20.55,54.32l-28.86,35.54,26.24,26.02,29.31-24.47,9.94,10.91-2.18,2.89-37.45,30.72h-1.47s-45.62-45.8-45.62-45.8l31.27-37.43c-6.11-12.43-11.73-25.1-14.79-38.71L0,221.57v-65.87l49.04-4.48c3.3-11.47,8.23-22.17,13.71-32.7.82-1.58,3.44-4.13,3.04-5.71l-30.6-35.34,46.4-46.43,36.7,30.74,2.22.04c11.87-6.82,24.82-11.44,38.07-14.76l3.84-47.06h65.12l4.97,49.47c13,3.53,25.42,9.07,36.76,16.29l1.15.02,36.1-29.68,45.92,46.47-30.45,37c-.38,1.86,4.88,10.52,5.99,13.16,3.5,8.32,6.61,16.92,8.2,25.86l47.06,3.84v65.87Z"/>
      <path d="M235.79,294.18h11.23v15.72h-86.83v9.73h86.83v15.72h-110.78v-15.72l9-.43v-9.3s-9,0-9,0v-15.72h11.23c-.76-12.91-8.48-20-14.69-29.84-21.36-33.84-36.96-74.48-16.87-112.88,29.19-55.78,108.21-61.14,144.89-9.9,25.26,35.29,17.13,74.04-2.41,109.71-7.89,14.41-20.86,26.12-22.58,42.91ZM184.14,285.19h14.97l8.24-79.35,14.96,1.5-8.05,76.76c.32,1.86,6.33.92,8.01,1.06,1.97-15.28,13.8-26.19,21.12-39.13,17.46-30.87,27.07-66.09,3.92-97-26.63-35.57-79.92-37.07-108.83-3.41-26.41,30.75-16.73,68.35,1.35,100.41,7.31,12.97,18.99,23.85,21.12,39.14l8.21-.35-8.25-77.47,15.38-.78,7.83,78.63Z"/>
      <polygon points="227.56 345.08 227.56 360.8 156.07 360.8 154.95 359.67 154.95 345.08 227.56 345.08"/>
      <path d="M183.28,81.7c1.25.78.81,12.39,1.61,14.86l-14.19,1.46-2.28-14.93,14.86-1.39Z"/>
      <path d="M214.84,83.09l-3.09,14.88-13.38-1.4c.8-2.48.36-14.08,1.61-14.86l14.87,1.39Z"/>
      <path d="M288.83,139.12l-12.93,6.79-7.11-10.8,12.64-9.35c.6,2.76,8.7,11.14,7.4,13.36Z"/>
      <path d="M101.82,125.76l12.64,9.35-7.11,10.8c-.86.2-12.78-6.27-12.98-7.13l7.46-13.03Z"/>
      <path d="M98.04,171.4l-14.9-3.05,3.69-14.91,13.9,5.21c1.11,1.58-3.22,10.06-2.7,12.74Z"/>
      <path d="M296.41,153.45l3.69,14.91-14.9,3.05c.52-2.68-3.81-11.16-2.7-12.74l13.9-5.21Z"/>
      <path d="M123.99,104.11c2.04-.37,7.82,10.09,9.98,11.54l-10.74,8.55-10.19-10.05,10.95-10.04Z"/>
      <path d="M152.69,88.33l5.25,14.21-12.28,5.2c-.74-.17-7.64-12.8-7.19-13.41l14.21-6Z"/>
      <polygon points="258.62 103.31 269.42 113.51 259.37 124.25 249.26 115.62 258.62 103.31"/>
      <polygon points="238 107.76 225.32 102.52 230.9 88.43 243.96 94.81 238 107.76"/>
      <polygon points="287.44 192.37 287.48 185.67 302.02 184.12 303.16 192.37 287.44 192.37"/>
      <path d="M80.09,192.37v-7.49c5.28-.41,10.41,1.25,15.72.76l-.75,6.73h-14.97Z"/>
    </g>
  </g>
</svg>